G04*
G04 #@! TF.GenerationSoftware,Altium Limited,Altium Designer,22.11.1 (43)*
G04*
G04 Layer_Color=16711935*
%FSLAX44Y44*%
%MOMM*%
G71*
G04*
G04 #@! TF.SameCoordinates,14A6941D-5628-486E-95A6-CD52BDA425C4*
G04*
G04*
G04 #@! TF.FilePolarity,Negative*
G04*
G01*
G75*
%ADD16R,2.1082X1.8542*%
%ADD17O,2.1082X1.8542*%
%ADD18R,1.8542X2.1082*%
%ADD19O,1.8542X2.1082*%
%ADD20R,1.4140X1.4140*%
%ADD21C,1.4140*%
%ADD22O,2.2032X2.2032*%
%ADD23C,2.3032*%
%ADD24R,2.3032X2.3032*%
%ADD25C,1.9812*%
%ADD26R,1.9812X1.9812*%
%ADD27C,2.3876*%
%ADD28C,3.4032*%
%ADD29C,1.9032*%
%ADD30C,4.2032*%
D16*
X1253067Y347726D02*
D03*
X1162473D02*
D03*
X363220Y144526D02*
D03*
X1473200Y321056D02*
D03*
X1071880Y347726D02*
D03*
X1343660D02*
D03*
X887730Y210566D02*
D03*
X299720Y144526D02*
D03*
X233680D02*
D03*
X179070Y169926D02*
D03*
D17*
X1253067Y373380D02*
D03*
X1162473D02*
D03*
X363220Y170180D02*
D03*
X1473200Y346710D02*
D03*
X124460Y453644D02*
D03*
Y479298D02*
D03*
Y504190D02*
D03*
Y529844D02*
D03*
X1071880Y373380D02*
D03*
X1343660D02*
D03*
X887730Y236220D02*
D03*
X299720Y170180D02*
D03*
X233680D02*
D03*
X179070Y144272D02*
D03*
D18*
X574294Y125730D02*
D03*
X548640Y189230D02*
D03*
X549910Y55880D02*
D03*
D19*
X548640Y125730D02*
D03*
X574294Y189230D02*
D03*
X575564Y55880D02*
D03*
D20*
X621030Y720090D02*
D03*
D21*
X595630D02*
D03*
X570230D02*
D03*
X544830D02*
D03*
X519430D02*
D03*
X494030D02*
D03*
X468630D02*
D03*
X443230D02*
D03*
X417830D02*
D03*
X392430D02*
D03*
X367030D02*
D03*
X341630D02*
D03*
X316230D02*
D03*
X290830D02*
D03*
X265430D02*
D03*
Y567690D02*
D03*
X290830D02*
D03*
X316230D02*
D03*
X341630D02*
D03*
X367030D02*
D03*
X392430D02*
D03*
X417830D02*
D03*
X443230D02*
D03*
X468630D02*
D03*
X494030D02*
D03*
X519430D02*
D03*
X544830D02*
D03*
X570230D02*
D03*
X595630D02*
D03*
X621030D02*
D03*
D22*
X599440Y429260D02*
D03*
X574040D02*
D03*
X548640D02*
D03*
X523240D02*
D03*
X472440D02*
D03*
X447040D02*
D03*
X421640D02*
D03*
X497840D02*
D03*
X624840D02*
D03*
X726440D02*
D03*
X701040D02*
D03*
X675640D02*
D03*
X752094D02*
D03*
X650240D02*
D03*
X396348Y277114D02*
D03*
X370948D02*
D03*
X447149D02*
D03*
X345549D02*
D03*
X320149D02*
D03*
X294748D02*
D03*
X269349D02*
D03*
X421749D02*
D03*
X472548D02*
D03*
X574148D02*
D03*
X497948D02*
D03*
X523349D02*
D03*
X548749D02*
D03*
X599548D02*
D03*
X624949D02*
D03*
X726548D02*
D03*
X701149D02*
D03*
X675749D02*
D03*
X751948D02*
D03*
X650349D02*
D03*
X396240Y429260D02*
D03*
X294640D02*
D03*
X370840D02*
D03*
X269240D02*
D03*
X320040D02*
D03*
X345440D02*
D03*
D23*
X1390650Y501650D02*
D03*
X1416050D02*
D03*
X1110403D02*
D03*
X1135803D02*
D03*
X970280D02*
D03*
X995680D02*
D03*
X1250527D02*
D03*
X1275927D02*
D03*
X220980Y55880D02*
D03*
X246380D02*
D03*
D24*
X1441450Y501650D02*
D03*
X1161203D02*
D03*
X1021080D02*
D03*
X1301327D02*
D03*
X271780Y55880D02*
D03*
D25*
X773430Y711200D02*
D03*
Y685800D02*
D03*
Y736600D02*
D03*
Y660400D02*
D03*
Y635000D02*
D03*
D26*
Y762000D02*
D03*
D27*
X913130Y716500D02*
D03*
Y681500D02*
D03*
D28*
X773430Y800100D02*
D03*
X925830D02*
D03*
Y596900D02*
D03*
X773430D02*
D03*
D29*
X958850Y237490D02*
D03*
X1360170Y58420D02*
D03*
X958850D02*
D03*
X1360170Y237490D02*
D03*
D30*
X1008380Y228600D02*
D03*
X1310640Y66040D02*
D03*
M02*
